<svg width="20" height="30" viewBox="0 0 20 30" fill="none" xmlns="http://www.w3.org/2000/svg">
<path d="M10 0C4.4865 0 0 3.9445 0 8.793C0 11.358 1.684 13.999 3.3105 16.551C4.712 18.7475 6.0505 20.844 6.4685 23H13.531C13.95 20.8435 15.287 18.747 16.688 16.551C18.3155 13.999 20 11.358 20 8.793C20 3.9445 15.5135 0 10 0ZM10 13.837C10.966 14.8795 11.876 15.1895 12.292 15.2815C12.2295 15.559 12.173 15.83 12.1075 16.097C11.9845 16.643 11.8645 17.175 11.748 17.686C11.4234 19.1222 11.1075 20.5604 10.8005 22.0005H9.199C8.89123 20.5606 8.5754 19.1224 8.2515 17.686L7.891 16.097C7.8255 15.83 7.769 15.559 7.7075 15.2815C8.124 15.1895 9.034 14.8795 10 13.837ZM9.7305 12.7455C9.635 12.539 9.6005 12.328 9.6985 12.1725C9.7805 12.049 9.889 11.9785 10.0005 11.9785C10.112 11.9785 10.2195 12.049 10.3025 12.1725C10.4 12.328 10.366 12.5385 10.2705 12.7455C10.2 12.8915 10.1035 13.0305 10 13.165C9.89542 13.0352 9.80507 12.8946 9.7305 12.7455ZM15.8455 16.0125C14.554 18.037 13.326 19.9615 12.744 22H11.121C11.4808 20.5911 11.833 19.1802 12.1775 17.7675C12.3005 17.257 12.4305 16.7285 12.563 16.1835C12.637 15.8935 12.7025 15.5945 12.775 15.297C13.153 15.2715 13.5145 15.1535 13.7965 14.895C14.0855 14.6105 14.236 14.2385 14.1685 13.8415C14.138 13.6515 13.9955 13.4055 13.7205 13.3215C13.586 13.2761 13.4409 13.2728 13.3045 13.312C13.1909 13.3541 13.0886 13.4218 13.0055 13.51C12.739 13.806 12.642 14.1015 12.533 14.3945C12.482 14.542 12.44 14.6895 12.4 14.835C12.4 14.835 11.975 14.8675 11.066 14.256C10.561 13.9165 10.4155 13.671 10.269 13.5085C10.427 13.333 10.5785 13.1405 10.696 12.907C10.7585 12.7765 10.811 12.635 10.829 12.476C10.847 12.317 10.8175 12.137 10.7265 11.982C10.6294 11.8101 10.4769 11.6762 10.294 11.602C10.203 11.5695 10.1015 11.554 10 11.554C9.8985 11.554 9.796 11.569 9.706 11.602C9.52289 11.6763 9.37017 11.8102 9.2725 11.982C9.1815 12.1375 9.1525 12.317 9.17 12.476C9.19016 12.6262 9.23546 12.7719 9.304 12.907C9.421 13.1405 9.5725 13.3335 9.731 13.5085C9.5845 13.671 9.438 13.9165 8.933 14.256C8.024 14.868 7.599 14.835 7.599 14.835C7.55978 14.6868 7.51576 14.5399 7.467 14.3945C7.3565 14.1015 7.261 13.806 6.9945 13.51C6.9115 13.4217 6.80915 13.354 6.6955 13.312C6.55909 13.2728 6.41398 13.2761 6.2795 13.3215C6.003 13.4055 5.8615 13.6515 5.8315 13.8415C5.763 14.2385 5.9145 14.6105 6.2035 14.895C6.4865 15.1535 6.847 15.2715 7.225 15.297C7.2965 15.595 7.3615 15.8935 7.437 16.1835L7.8225 17.7675C8.16729 19.1802 8.51946 20.591 8.879 22H7.256C6.675 19.9635 5.4465 18.039 4.1515 16.0105C2.602 13.579 1 11.065 1 8.793C1 4.496 5.037 1 10 1C14.9625 1 19 4.496 19 8.793C19 11.066 17.3965 13.5805 15.8455 16.0125ZM12.8995 14.832C12.929 14.7295 12.959 14.6255 12.994 14.5255C13.0885 14.262 13.209 13.9755 13.373 13.804C13.412 13.76 13.452 13.7425 13.4725 13.731C13.4725 13.733 13.5215 13.725 13.5525 13.7405C13.608 13.7545 13.661 13.812 13.6815 13.9225C13.7215 14.1365 13.62 14.412 13.4365 14.5845C13.3075 14.707 13.1085 14.793 12.8995 14.832ZM7.0995 14.832C6.8905 14.793 6.6915 14.707 6.5635 14.584C6.379 14.4115 6.2785 14.136 6.3185 13.922C6.339 13.811 6.3915 13.754 6.4475 13.74C6.479 13.725 6.5275 13.7325 6.5275 13.7305C6.547 13.742 6.588 13.76 6.625 13.8035C6.79 13.9755 6.91 14.2615 7.005 14.525C7.04 14.6255 7.0705 14.7295 7.0995 14.832ZM7.26 23.7785H6.76V25.5785H7.144V27.179H7.528V28.7795H8.171C8.4735 29.494 9.1735 30 10 30C10.826 30 11.5255 29.494 11.829 28.7785H12.4925V27.168L12.5485 27.1475L12.876 27.0275V25.566L12.9085 25.5555L13.259 25.4455V23.778H7.26V23.7785Z" fill="white"/>
</svg>
