<svg width="23" height="26" viewBox="0 0 23 26" fill="none" xmlns="http://www.w3.org/2000/svg">
<path d="M12.492 0.539175C12.2097 0.316753 11.8609 0.195801 11.5016 0.195801C11.1422 0.195801 10.7934 0.316753 10.5112 0.539175L5.21835 4.71518C3.93035 5.73118 4.08715 7.50398 5.12555 8.41758L2.78316 10.3472C1.24236 11.6192 1.86635 13.9824 3.59915 14.4992L1.06156 16.8768C-0.516045 18.3536 0.530355 21 2.69195 21H8.29995V23.8C8.29995 24.904 9.19596 25.8 10.3 25.8H12.7C13.804 25.8 14.7 24.904 14.7 23.8V21H20.3064C22.468 21 23.5144 18.352 21.9352 16.8752L19.396 14.5008C21.1336 13.9872 21.7608 11.6208 20.2168 10.3488L17.8776 8.41918C18.916 7.50558 19.0728 5.73118 17.7864 4.71518L12.492 0.539175ZM13.1 21V23.8C13.1 23.9061 13.0578 24.0078 12.9828 24.0828C12.9078 24.1578 12.806 24.2 12.7 24.2H10.3C10.1939 24.2 10.0921 24.1578 10.0171 24.0828C9.9421 24.0078 9.89995 23.9061 9.89995 23.8V21H13.1ZM11.5016 1.79518L16.7944 5.97118C16.9234 6.07243 17.0181 6.21087 17.0658 6.36777C17.1135 6.52466 17.1119 6.69243 17.061 6.84834C17.0102 7.00426 16.9127 7.1408 16.7818 7.23947C16.6508 7.33813 16.4926 7.39417 16.3288 7.39998C16.1663 7.40509 16.0093 7.45954 15.8786 7.55609C15.7479 7.65264 15.6497 7.78671 15.597 7.94045C15.5444 8.09419 15.5398 8.26032 15.5839 8.41672C15.6281 8.57313 15.7187 8.71239 15.844 8.81598L19.1992 11.584C19.3258 11.6889 19.417 11.8303 19.4604 11.989C19.5038 12.1476 19.4972 12.3157 19.4416 12.4705C19.386 12.6253 19.284 12.7591 19.1496 12.8539C19.0152 12.9486 18.8548 12.9996 18.6904 13H17.4776C17.317 12.9999 17.1602 13.0481 17.0275 13.1383C16.8947 13.2285 16.7922 13.3566 16.7332 13.5058C16.6741 13.6551 16.6614 13.8187 16.6966 13.9753C16.7317 14.1319 16.8132 14.2743 16.9304 14.384L20.8408 18.0432C20.9556 18.1505 21.0356 18.29 21.0702 18.4434C21.1048 18.5967 21.0925 18.757 21.0349 18.9033C20.9773 19.0496 20.877 19.1752 20.7471 19.2638C20.6172 19.3523 20.4636 19.3998 20.3064 19.4H2.69195C2.53458 19.4001 2.3808 19.3529 2.25063 19.2644C2.12046 19.176 2.01992 19.0504 1.9621 18.904C1.90428 18.7577 1.89184 18.5973 1.92642 18.4437C1.96099 18.2902 2.04097 18.1506 2.15595 18.0432L6.05996 14.384C6.17693 14.2745 6.25832 14.1324 6.29359 13.976C6.32885 13.8197 6.31637 13.6564 6.25775 13.5073C6.19913 13.3582 6.09709 13.2301 5.96483 13.1396C5.83257 13.0492 5.67619 13.0005 5.51596 13H4.30956C4.14472 13 3.98388 12.9492 3.84905 12.8544C3.71422 12.7595 3.61197 12.6254 3.55628 12.4702C3.5006 12.3151 3.4942 12.1465 3.53796 11.9876C3.58172 11.8287 3.6735 11.6872 3.80076 11.5824L7.15755 8.81598C7.28268 8.71248 7.37334 8.57336 7.4175 8.4171C7.46167 8.26084 7.45723 8.09484 7.40479 7.94116C7.35235 7.78749 7.25438 7.65341 7.12391 7.55674C6.99344 7.46007 6.83664 7.4054 6.67436 7.39998C6.51047 7.39417 6.35233 7.33813 6.22135 7.23947C6.09037 7.1408 5.99287 7.00426 5.94206 6.84834C5.89126 6.69243 5.88959 6.52466 5.93729 6.36777C5.98499 6.21087 6.07976 6.07243 6.20876 5.97118L11.5016 1.79518Z" fill="white"/>
</svg>
